<svg width="265" height="147" viewBox="0 0 265 147" fill="none" xmlns="http://www.w3.org/2000/svg">
<path d="M224.39 6.51939L132.376 93.1407L40.363 6.51939C38.1675 4.45249 35.561 2.81295 32.6923 1.69435C29.8237 0.57575 26.7491 2.17784e-08 23.6441 0C20.5391 -2.17783e-08 17.4646 0.57575 14.5959 1.69435C11.7273 2.81295 9.12077 4.45249 6.92521 6.51939C4.72965 8.58629 2.98804 11.0401 1.79981 13.7406C0.611578 16.4411 -2.3134e-08 19.3355 0 22.2586C2.3134e-08 25.1816 0.611578 28.076 1.79981 30.7766C2.98804 33.4771 4.72965 35.9309 6.92521 37.9978L115.776 140.47C125.025 149.177 139.965 149.177 149.214 140.47L258.065 37.9978C260.263 35.9324 262.007 33.4791 263.197 30.7784C264.387 28.0776 265 25.1825 265 22.2586C265 19.3347 264.387 16.4395 263.197 13.7388C262.007 11.038 260.263 8.58477 258.065 6.51939C248.816 -1.96414 233.639 -2.18739 224.39 6.51939Z" fill="white"/>
</svg>
