<svg width="298" height="298" viewBox="0 0 298 298" fill="none" xmlns="http://www.w3.org/2000/svg">
<path d="M0 103.765C0 75.5856 -8.88109e-07 61.5111 8.7314 52.7555C17.4628 44 31.4986 44 59.6 44H238.4C266.501 44 280.537 44 289.269 52.7555C298 61.5111 298 75.5856 298 103.765C298 110.802 298 114.328 295.825 116.524C293.634 118.706 290.103 118.706 283.1 118.706H14.9C7.8821 118.706 4.3657 118.706 2.1754 116.524C-1.33216e-06 114.328 0 110.787 0 103.765ZM0 238.235C0 266.414 -8.88109e-07 280.489 8.7314 289.244C17.4628 298 31.4986 298 59.6 298H238.4C266.501 298 280.537 298 289.269 289.244C298 280.489 298 266.414 298 238.235V163.529C298 156.492 298 152.966 295.825 150.77C293.634 148.588 290.103 148.588 283.1 148.588H14.9C7.8821 148.588 4.3657 148.588 2.1754 150.77C-1.33216e-06 152.966 0 156.507 0 163.529V238.235Z" fill="white"/>
<path d="M60 60V15C60 6.71573 66.6411 0 74.8333 0C83.0256 0 89.6667 6.71573 89.6667 15V60C89.6667 68.2843 83.0256 75 74.8333 75C66.6411 75 60 68.2843 60 60ZM208.333 60V15C208.333 6.71573 214.974 0 223.167 0C231.359 0 238 6.71573 238 15V60C238 68.2843 231.359 75 223.167 75C214.974 75 208.333 68.2843 208.333 60Z" fill="white"/>
</svg>
