<svg width="214" height="214" viewBox="0 0 214 214" fill="none" xmlns="http://www.w3.org/2000/svg">
<path d="M196.167 20.0674H167.188V6.6921C167.189 4.91843 166.485 3.21693 165.232 1.96192C163.979 0.706907 162.278 0.00118404 160.504 1.58794e-06C158.731 -0.00118086 157.029 0.702274 155.774 1.95561C154.519 3.20895 153.814 4.90951 153.813 6.68318V20.0674H113.688V6.6921C113.688 5.81387 113.516 4.94412 113.18 4.13251C112.845 3.32091 112.353 2.58334 111.732 1.96192C111.111 1.3405 110.374 0.8474 109.563 0.510774C108.752 0.174148 107.883 0.000586977 107.004 1.48829e-06C105.231 -0.00118096 103.529 0.702274 102.274 1.95561C101.019 3.20895 100.314 4.90951 100.313 6.68318V20.0674H60.1875V6.6921C60.1881 5.81387 60.0157 4.94412 59.6802 4.13251C59.3446 3.32091 58.8525 2.58334 58.2319 1.96192C57.6114 1.3405 56.8745 0.8474 56.0633 0.510774C55.2522 0.174148 54.3827 0.000586977 53.5045 1.48829e-06C51.7308 -0.00118096 50.0294 0.702274 48.7744 1.95561C47.5194 3.20895 46.8137 4.90951 46.8125 6.68318V20.0674H17.8333C13.1052 20.0674 8.57056 21.9451 5.22641 25.2876C1.88227 28.6301 0.00236407 33.1639 0 37.8922V196.166C0 200.896 1.87886 205.432 5.22326 208.777C8.56766 212.121 13.1036 214 17.8333 214H196.167C200.896 214 205.432 212.121 208.777 208.777C212.121 205.432 214 200.896 214 196.166V37.8922C213.998 33.1639 212.118 28.6301 208.774 25.2876C205.429 21.9451 200.895 20.0674 196.167 20.0674ZM200.625 196.175C200.625 197.356 200.157 198.489 199.322 199.325C198.488 200.161 197.356 200.631 196.176 200.634H17.8333C16.6509 200.634 15.5169 200.164 14.6808 199.328C13.8447 198.492 13.375 197.358 13.375 196.175V37.9011C13.3774 36.7202 13.8481 35.5884 14.684 34.7543C15.5198 33.9201 16.6525 33.4516 17.8333 33.4516H46.8125V46.8268C46.8113 48.6005 47.5148 50.302 48.7681 51.557C50.0214 52.812 51.7219 53.5178 53.4955 53.5189C55.2692 53.5201 56.9706 52.8167 58.2256 51.5633C59.4806 50.31 60.1863 48.6094 60.1875 46.8358V33.4516H100.313V46.8268C100.311 48.6005 101.015 50.302 102.268 51.557C103.521 52.812 105.222 53.5178 106.996 53.5189C108.769 53.5201 110.471 52.8167 111.726 51.5633C112.981 50.31 113.686 48.6094 113.688 46.8358V33.4516H153.813V46.8268C153.811 48.6005 154.515 50.302 155.768 51.557C157.021 52.812 158.722 53.5178 160.496 53.5189C162.269 53.5201 163.971 52.8167 165.226 51.5633C166.481 50.31 167.186 48.6094 167.188 46.8358V33.4516H196.167C197.346 33.4539 198.476 33.9235 199.31 34.7574C200.144 35.5913 200.614 36.7217 200.616 37.9011L200.625 196.175Z" fill="url(#paint0_linear_67_988)"/>
<path d="M46 80H73.1111V100.308H46V80ZM46 113.846H73.1111V134.154H46V113.846ZM46 147.692H73.1111V168H46V147.692ZM93.4444 147.692H120.556V168H93.4444V147.692ZM93.4444 113.846H120.556V134.154H93.4444V113.846ZM93.4444 80H120.556V100.308H93.4444V80ZM140.889 147.692H168V168H140.889V147.692ZM140.889 113.846H168V134.154H140.889V113.846ZM140.889 80H168V100.308H140.889V80Z" fill="url(#paint1_linear_67_988)"/>
<defs>
<linearGradient id="paint0_linear_67_988" x1="107" y1="0" x2="107" y2="214" gradientUnits="userSpaceOnUse">
<stop stop-color="#A14371"/>
<stop offset="1" stop-color="#4A12A9"/>
</linearGradient>
<linearGradient id="paint1_linear_67_988" x1="107" y1="80" x2="107" y2="168" gradientUnits="userSpaceOnUse">
<stop stop-color="#A14371"/>
<stop offset="1" stop-color="#4A12A9"/>
</linearGradient>
</defs>
</svg>
