<svg width="268" height="268" viewBox="0 0 268 268" fill="none" xmlns="http://www.w3.org/2000/svg">
<path d="M252.367 268C221.348 268 190.642 261.3 160.249 247.9C129.856 234.5 102.247 215.393 77.4222 190.578C52.5975 165.763 33.4901 138.219 20.1 107.944C6.70992 77.6704 0.00992593 46.9 0 15.6333V0H87.8444L101.617 74.8167L59.1833 117.622C64.6426 127.3 70.7222 136.481 77.4222 145.167C84.1222 153.852 91.3185 161.917 99.0111 169.361C106.207 176.557 114.089 183.446 122.655 190.027C131.221 196.608 140.462 202.747 150.378 208.444L193.556 165.267L268 180.528V268H252.367Z" fill="white"/>
</svg>
