<svg width="186" height="152" viewBox="0 0 186 152" fill="none" xmlns="http://www.w3.org/2000/svg">
<path d="M16.9091 76C7.60909 76 0 68.4 0 59.1111V16.8889C0 7.6 7.60909 0 16.9091 0H84.5455C93.8454 0 101.455 7.6 101.455 16.8889V59.1111C101.455 68.4 93.8454 76 84.5455 76H67.6364V101.333L42.2727 76H16.9091ZM169.091 126.667C178.391 126.667 186 119.067 186 109.778V67.5556C186 58.2667 178.391 50.6667 169.091 50.6667H118.364V59.1111C118.364 77.6889 103.145 92.8889 84.5455 92.8889V109.778C84.5455 119.067 92.1545 126.667 101.455 126.667H118.364V152L143.727 126.667H169.091Z" fill="white"/>
</svg>
