<svg width="170" height="179" viewBox="0 0 170 179" fill="none" xmlns="http://www.w3.org/2000/svg">
<path d="M151.111 122.474H132.222V103.632H151.111M151.111 160.158H132.222V141.316H151.111M94.4444 47.1053H75.5556V28.2632H94.4444M94.4444 84.7895H75.5556V65.9474H94.4444M94.4444 122.474H75.5556V103.632H94.4444M94.4444 160.158H75.5556V141.316H94.4444M37.7778 84.7895H18.8889V65.9474H37.7778M37.7778 122.474H18.8889V103.632H37.7778M37.7778 160.158H18.8889V141.316H37.7778M113.333 84.7895V28.2632L85 0L56.6667 28.2632V47.1053H0V179H170V84.7895H113.333Z" fill="white"/>
</svg>
