<svg width="301" height="316" viewBox="0 0 301 316" fill="none" xmlns="http://www.w3.org/2000/svg">
<path d="M175.655 91.5175L103.425 161.806C96.559 168.546 92.7862 177.758 92.9371 187.438C93.1429 197.231 97.2061 206.554 104.255 213.408C111.329 220.354 120.856 224.342 130.721 224.511C135.551 224.612 140.352 223.753 144.842 221.984C149.333 220.216 153.421 217.573 156.867 214.213L229.078 143.925C235.89 137.235 241.262 129.242 244.868 120.43C248.474 111.617 250.238 102.169 250.054 92.6596C249.657 73.0732 241.545 54.4208 227.455 40.7018C213.327 26.8249 194.359 18.8796 174.486 18.5144C164.837 18.3232 155.246 20.0428 146.274 23.5727C137.302 27.1026 129.129 32.3719 122.233 39.0728L49.9652 109.38C39.7543 119.419 31.7025 131.41 26.2972 144.628C20.892 157.846 18.2459 172.015 18.5192 186.277C19.1266 215.65 31.3022 243.617 52.4364 264.186C73.6179 284.996 102.056 296.917 131.853 297.477C146.332 297.776 160.726 295.204 174.191 289.912C187.657 284.62 199.922 276.714 210.27 266.658L282.5 196.332" stroke="white" stroke-width="37" stroke-linecap="round" stroke-linejoin="round"/>
</svg>
