<svg width="378" height="420" viewBox="0 0 378 420" fill="none" xmlns="http://www.w3.org/2000/svg">
<path d="M336 0C347.139 0 357.822 4.42499 365.698 12.3015C373.575 20.178 378 30.8609 378 42V294C378 305.139 373.575 315.822 365.698 323.698C357.822 331.575 347.139 336 336 336H294V378C294 389.139 289.575 399.822 281.698 407.698C273.822 415.575 263.139 420 252 420H42C30.8609 420 20.178 415.575 12.3015 407.698C4.42499 399.822 0 389.139 0 378V126C0 114.861 4.42499 104.178 12.3015 96.3015C20.178 88.425 30.8609 84 42 84H84V42C84 30.8609 88.425 20.178 96.3015 12.3015C104.178 4.42499 114.861 0 126 0H336ZM147 273H105C99.6475 273.006 94.4993 275.055 90.6073 278.73C86.7152 282.404 84.3731 287.426 84.0594 292.769C83.7457 298.113 85.4842 303.374 88.9196 307.478C92.355 311.583 97.228 314.221 102.543 314.853L105 315H147C152.352 314.994 157.501 312.945 161.393 309.27C165.285 305.596 167.627 300.574 167.941 295.231C168.254 289.887 166.516 284.626 163.08 280.522C159.645 276.417 154.772 273.779 149.457 273.147L147 273ZM336 42H126V84H252C263.139 84 273.822 88.425 281.698 96.3015C289.575 104.178 294 114.861 294 126V294H336V42ZM189 189H105C99.4305 189 94.089 191.212 90.1508 195.151C86.2125 199.089 84 204.43 84 210C84 215.57 86.2125 220.911 90.1508 224.849C94.089 228.788 99.4305 231 105 231H189C194.57 231 199.911 228.788 203.849 224.849C207.788 220.911 210 215.57 210 210C210 204.43 207.788 199.089 203.849 195.151C199.911 191.212 194.57 189 189 189Z" fill="#A14371"/>
</svg>
