<svg width="255" height="255" viewBox="0 0 255 255" fill="none" xmlns="http://www.w3.org/2000/svg">
<path d="M92.4076 104.105C89.3052 104.105 86.3299 105.337 84.1362 107.531C81.9425 109.725 80.7101 112.7 80.7101 115.803V162.592H104.105V127.5H139.197V156.744L180.139 115.803L139.197 74.8614V104.105H92.4076ZM135.77 3.42486L251.575 119.23C253.768 121.423 255 124.398 255 127.5C255 130.602 253.768 133.577 251.575 135.77L135.77 251.575C133.577 253.768 130.602 255 127.5 255C124.398 255 121.423 253.768 119.23 251.575L3.42486 135.77C1.23192 133.577 0 130.602 0 127.5C0 124.398 1.23192 121.423 3.42486 119.23L119.23 3.42486C121.423 1.23192 124.398 0 127.5 0C130.602 0 133.577 1.23192 135.77 3.42486Z" fill="white"/>
</svg>
