<svg width="111" height="120" viewBox="0 0 111 120" fill="none" xmlns="http://www.w3.org/2000/svg">
<path d="M0 106.286V44.5714C0 42.4 0.492561 40.3429 1.47769 38.4C2.46281 36.4571 3.82025 34.8571 5.55 33.6L47.175 2.74286C49.6031 0.914286 52.3781 0 55.5 0C58.6219 0 61.3969 0.914286 63.825 2.74286L105.45 33.6C107.184 34.8571 108.544 36.4571 109.529 38.4C110.514 40.3429 111.005 42.4 111 44.5714V106.286C111 110.057 109.64 113.287 106.921 115.975C104.201 118.663 100.936 120.005 97.125 120H76.3125C74.3469 120 72.7004 119.342 71.373 118.025C70.0456 116.709 69.3796 115.081 69.375 113.143V78.8571C69.375 76.9143 68.709 75.2868 67.377 73.9748C66.045 72.6628 64.3985 72.0046 62.4375 72H48.5625C46.5969 72 44.9504 72.6583 43.623 73.9748C42.2956 75.2914 41.6296 76.9188 41.625 78.8571V113.143C41.625 115.086 40.959 116.715 39.627 118.032C38.295 119.349 36.6485 120.005 34.6875 120H13.875C10.0594 120 6.79412 118.658 4.07925 115.975C1.36437 113.291 0.004625 110.062 0 106.286Z" fill="white"/>
</svg>
