<svg width="279" height="279" viewBox="0 0 279 279" fill="none" xmlns="http://www.w3.org/2000/svg">
<path d="M195.296 0C203 0 209.246 6.24595 209.246 13.9502V62.7764H265.045C268.922 62.7764 272.623 64.3915 275.263 67.2314C277.902 70.0736 279.241 73.8937 278.954 77.7617L265.005 266.085C264.463 273.367 258.398 279 251.096 279H27.8965C20.5938 279 14.5293 273.367 13.9873 266.085L0.0381118 77.7617C-0.248411 73.8936 1.09021 70.0736 3.72952 67.2314C6.36877 64.3915 10.0702 62.7764 13.9473 62.7764H69.7471V13.9502C69.7472 6.24595 75.993 0 83.6973 0H195.296ZM40.8526 251.101H238.14L250.033 90.6758H209.246V104.625C209.246 112.329 203 118.574 195.296 118.574C187.592 118.574 181.347 112.329 181.347 104.625V90.6758H97.6465V104.625C97.6464 112.329 91.4014 118.574 83.6973 118.574C75.993 118.574 69.7472 112.329 69.7471 104.625V90.6758H28.959L40.8526 251.101ZM195.296 195.3C203 195.3 209.246 201.545 209.246 209.249C209.246 216.953 203 223.199 195.296 223.199H83.6973C75.993 223.199 69.7471 216.953 69.7471 209.249C69.7473 201.545 75.9931 195.3 83.6973 195.3H195.296ZM97.6465 62.7764H181.347V27.9004H97.6465V62.7764Z" fill="url(#paint0_linear_57_917)"/>
<defs>
<linearGradient id="paint0_linear_57_917" x1="313.869" y1="-1.99843e-05" x2="41.8441" y2="278.998" gradientUnits="userSpaceOnUse">
<stop stop-color="#4A12A9"/>
<stop offset="1" stop-color="#A14371"/>
</linearGradient>
</defs>
</svg>
