<svg width="288" height="202" viewBox="0 0 288 202" fill="none" xmlns="http://www.w3.org/2000/svg">
<path d="M115.2 144.286L189.936 101L115.2 57.7143V144.286ZM281.664 31.31C283.536 38.0914 284.832 47.1814 285.696 58.7243C286.704 70.2671 287.136 80.2229 287.136 88.88L288 101C288 132.599 285.696 155.829 281.664 170.69C278.064 183.676 269.712 192.044 256.752 195.651C249.984 197.527 237.6 198.826 218.592 199.691C199.872 200.701 182.736 201.134 166.896 201.134L144 202C83.664 202 46.08 199.691 31.248 195.651C18.288 192.044 9.936 183.676 6.336 170.69C4.464 163.909 3.168 154.819 2.304 143.276C1.296 131.733 0.863999 121.777 0.863999 113.12L0 101C0 69.4014 2.304 46.1714 6.336 31.31C9.936 18.3243 18.288 9.95572 31.248 6.34857C38.016 4.47286 50.4 3.17428 69.408 2.30857C88.128 1.29857 105.264 0.865713 121.104 0.865713L144 0C204.336 0 241.92 2.30857 256.752 6.34857C269.712 9.95572 278.064 18.3243 281.664 31.31Z" fill="url(#paint0_linear_59_927)"/>
<defs>
<linearGradient id="paint0_linear_59_927" x1="288" y1="19.5832" x2="-7.51489e-06" y2="182.417" gradientUnits="userSpaceOnUse">
<stop stop-color="#4A12A9"/>
<stop offset="1" stop-color="#A14371"/>
</linearGradient>
</defs>
</svg>
