<svg width="265" height="265" viewBox="0 0 265 265" fill="none" xmlns="http://www.w3.org/2000/svg">
<path d="M146.109 26.5V0C208.288 6.625 257.258 55.5175 264.196 117.263C272.202 190.005 219.496 255.46 146.109 263.41V236.91C194.678 230.947 232.84 192.92 238.978 144.69C240.706 130.873 239.674 116.852 235.941 103.431C232.208 90.0103 225.846 77.4519 217.221 66.4745C208.595 55.4971 197.874 46.3162 185.672 39.457C173.47 32.5977 160.026 28.1948 146.109 26.5ZM48.3026 29.15C68.5288 12.5709 93.3082 2.41454 119.422 0V27.295C100.341 29.945 82.3279 37.63 67.3834 49.555L48.3026 29.15ZM0 119.25C2.46975 93.304 12.7447 68.6963 29.4886 48.6275L48.5694 67.575C36.7374 82.5379 29.1788 100.387 26.6865 119.25H0ZM29.622 216.372C13.0454 196.204 2.79238 171.649 0.133432 145.75H26.8199C29.2217 164.565 36.8274 182.452 48.5694 197.425L29.622 216.372ZM48.3026 235.055L66.8497 216.903H67.3834C82.4613 228.563 100.475 236.115 119.422 238.5V265C93.2693 262.218 68.4509 251.75 48.3026 235.055ZM132.765 198.75L153.581 153.435L199.482 132.5L153.581 111.83L132.765 66.25L111.816 111.83L66.0491 132.5L111.816 153.435L132.765 198.75Z" fill="url(#paint0_linear_57_905)"/>
<defs>
<linearGradient id="paint0_linear_57_905" x1="25.6452" y1="230.806" x2="363.306" y2="-68.3871" gradientUnits="userSpaceOnUse">
<stop stop-color="#A14371"/>
<stop offset="1" stop-color="#4A12A9"/>
</linearGradient>
</defs>
</svg>
