<svg width="279" height="279" viewBox="0 0 279 279" fill="none" xmlns="http://www.w3.org/2000/svg">
<path d="M13.9472 153.448H27.8973V251.099C27.8973 266.486 40.4105 279 55.7975 279H223.199C238.586 279 251.099 266.486 251.099 251.099V153.448H265.049C267.808 153.448 270.505 152.629 272.798 151.096C275.092 149.564 276.879 147.385 277.935 144.836C278.99 142.288 279.267 139.483 278.729 136.778C278.191 134.072 276.862 131.586 274.912 129.636L149.361 4.08441C146.745 1.46916 143.197 0 139.498 0C135.799 0 132.252 1.46916 129.636 4.08441L4.08441 129.636C2.13405 131.586 0.805913 134.072 0.267891 136.778C-0.270131 139.483 0.00612342 142.288 1.06173 144.836C2.11734 147.385 3.9049 149.564 6.19844 151.096C8.49197 152.629 11.1885 153.448 13.9472 153.448ZM139.498 33.6726L223.199 117.373V181.349L223.213 251.099H55.7975V117.373L139.498 33.6726Z" fill="url(#paint0_linear_57_906)"/>
<path d="M139.5 223.198C191.158 223.198 207.87 173.828 208.553 171.735L182.048 163.072C181.937 163.393 171.153 195.297 139.5 195.297C108.28 195.297 97.371 164.314 96.9386 162.989L70.4473 171.735C71.1308 173.828 87.8431 223.198 139.5 223.198Z" fill="url(#paint1_linear_57_906)"/>
<defs>
<linearGradient id="paint0_linear_57_906" x1="279.002" y1="-76.7257" x2="48.8254" y2="306.903" gradientUnits="userSpaceOnUse">
<stop stop-color="#4A12A9"/>
<stop offset="1" stop-color="#A14371"/>
</linearGradient>
<linearGradient id="paint1_linear_57_906" x1="208.556" y1="146.431" x2="180.992" y2="251.813" gradientUnits="userSpaceOnUse">
<stop stop-color="#4A12A9"/>
<stop offset="1" stop-color="#A14371"/>
</linearGradient>
</defs>
</svg>
