<svg width="741" height="347" viewBox="0 0 741 347" fill="none" xmlns="http://www.w3.org/2000/svg">
<path d="M0 173.5C0 127.485 18.2293 83.3676 50.6543 50.8301C83.0793 18.2925 127.044 0 172.9 0H271.7C294.436 0 312.867 18.4949 312.867 41.3095C312.867 64.1241 294.436 82.619 271.7 82.619H172.9C148.88 82.619 125.851 92.2008 108.867 109.244C91.882 126.288 82.3333 149.397 82.3333 173.5C82.3333 197.603 91.882 220.712 108.867 237.756C125.851 254.799 148.88 264.381 172.9 264.381H271.7C294.436 264.381 312.867 282.876 312.867 305.69C312.867 328.505 294.436 347 271.7 347H172.9C127.044 347 83.0793 328.707 50.6543 296.17C18.2293 263.632 0 219.515 0 173.5ZM658.667 173.5C658.667 149.397 649.118 126.288 632.133 109.244C615.149 92.2008 592.12 82.619 568.1 82.619H469.3C446.564 82.619 428.133 64.1241 428.133 41.3095C428.133 18.4949 446.564 0 469.3 0H568.1C613.956 0 657.921 18.2925 690.346 50.8301C722.771 83.3676 741 127.485 741 173.5C741 219.515 722.771 263.632 690.346 296.17C657.921 328.707 613.956 347 568.1 347H469.3C446.564 347 428.133 328.505 428.133 305.69C428.133 282.876 446.564 264.381 469.3 264.381H568.1C592.12 264.381 615.149 254.799 632.133 237.756C649.118 220.712 658.667 197.603 658.667 173.5ZM502.233 132.19C524.969 132.19 543.4 150.685 543.4 173.5C543.4 196.315 524.969 214.81 502.233 214.81H238.767C216.031 214.81 197.6 196.315 197.6 173.5C197.6 150.685 216.031 132.19 238.767 132.19H502.233Z" fill="white"/>
</svg>
