<svg width="372" height="353" viewBox="0 0 372 353" fill="none" xmlns="http://www.w3.org/2000/svg">
<path d="M297.6 0C317.332 0 336.256 7.82986 350.209 21.7671C364.161 35.7043 372 54.6073 372 74.3175V222.953C372 242.663 364.161 261.566 350.209 275.503C336.256 289.44 317.332 297.27 297.6 297.27H209.734L121.16 350.351C118.493 351.95 115.467 352.856 112.358 352.984C109.25 353.113 106.159 352.46 103.369 351.087C100.578 349.713 98.177 347.663 96.3851 345.123C94.5931 342.583 93.4676 339.634 93.1116 336.547L93 334.429V297.27H74.4C55.3119 297.27 36.954 289.942 23.1233 276.801C9.29265 263.66 1.04741 245.712 0.0930021 226.669L0 222.953V74.3175C0 54.6073 7.83855 35.7043 21.7913 21.7671C35.744 7.82986 54.6679 0 74.4 0H297.6ZM223.2 167.214H111.6C106.667 167.214 101.936 169.172 98.4478 172.656C94.9596 176.141 93 180.866 93 185.794C93 190.721 94.9596 195.447 98.4478 198.931C101.936 202.416 106.667 204.373 111.6 204.373H223.2C228.133 204.373 232.864 202.416 236.352 198.931C239.84 195.447 241.8 190.721 241.8 185.794C241.8 180.866 239.84 176.141 236.352 172.656C232.864 169.172 228.133 167.214 223.2 167.214ZM260.4 92.8969H111.6C106.667 92.8969 101.936 94.8544 98.4478 98.3387C94.9596 101.823 93 106.549 93 111.476C93 116.404 94.9596 121.13 98.4478 124.614C101.936 128.098 106.667 130.056 111.6 130.056H260.4C265.333 130.056 270.064 128.098 273.552 124.614C277.04 121.13 279 116.404 279 111.476C279 106.549 277.04 101.823 273.552 98.3387C270.064 94.8544 265.333 92.8969 260.4 92.8969Z" fill="white"/>
</svg>
