<svg width="223" height="223" viewBox="0 0 223 223" fill="none" xmlns="http://www.w3.org/2000/svg">
<path d="M95.5072 0V128.963H127.493V0H95.5072ZM32.6524 32.6524C12.4748 52.83 0 80.71 0 111.5C0 173.08 49.9202 223 111.5 223C173.08 223 223 173.08 223 111.5C223 80.71 210.525 52.83 190.348 32.6524L167.89 55.1104C182.321 69.5418 191.246 89.4806 191.246 111.5C191.246 155.539 155.539 191.246 111.5 191.246C67.461 191.246 31.7541 155.539 31.7541 111.5C31.7541 89.4806 40.6787 69.5418 55.1104 55.1104L32.6524 32.6524Z" fill="white" fill-opacity="0.5"/>
</svg>
