<svg width="467" height="467" viewBox="0 0 467 467" fill="none" xmlns="http://www.w3.org/2000/svg">
<path d="M320.666 26.834C343.315 26.834 361.801 26.8121 376.724 28.165C391.956 29.5461 405.67 32.5013 418.249 39.7656L418.25 39.7646C432.917 48.2333 445.098 60.413 453.567 75.0801L454.236 76.2637C461.016 88.5189 463.83 101.852 465.168 116.609C466.521 131.532 466.5 150.018 466.5 172.667V296.001C466.5 330.243 466.548 358.196 463.589 380.196C460.544 402.834 453.949 422.513 438.235 438.219L438.236 438.22C422.528 453.946 402.841 460.544 380.195 463.59C358.194 466.549 330.242 466.501 296 466.501H172.666C150.017 466.501 131.532 466.522 116.608 465.169C101.375 463.788 87.6584 460.834 75.0791 453.568V453.567C60.4123 445.098 48.2322 432.918 39.7637 418.251L39.7646 418.25C32.5004 405.672 29.5451 391.957 28.1641 376.725C26.8111 361.802 26.833 343.315 26.833 320.667C26.8332 308.241 36.9067 298.167 49.333 298.167C61.7593 298.167 71.8328 308.241 71.833 320.667C71.833 344.145 71.8545 360.242 72.9805 372.662C74.0783 384.771 76.0822 391.159 78.7324 395.747L78.7344 395.75C83.113 403.334 89.3508 409.672 96.8535 414.17L97.583 414.6L97.5869 414.601C102.175 417.251 108.563 419.256 120.672 420.354C133.092 421.48 149.189 421.501 172.666 421.501H296C331.515 421.501 355.893 421.453 374.197 418.991C391.856 416.616 400.45 412.373 406.398 406.418L406.408 406.409L406.417 406.399C412.372 400.451 416.615 391.857 418.99 374.198C421.452 355.894 421.5 331.515 421.5 296.001V172.667C421.5 149.19 421.479 133.093 420.353 120.673C419.255 108.564 417.25 102.176 414.6 97.5879L414.599 97.584C410.079 89.7557 403.577 83.2552 395.749 78.7354L395.746 78.7334C391.158 76.0832 384.77 74.0793 372.661 72.9814C360.241 71.8554 344.144 71.834 320.666 71.834C308.24 71.8338 298.166 61.7601 298.166 49.334C298.166 36.9077 308.24 26.8342 320.666 26.834ZM222 0V49.333H84.2119L288.772 253.894C293.266 258.546 295.752 264.777 295.696 271.244C295.64 277.712 293.046 283.899 288.473 288.473C283.899 293.046 277.712 295.64 271.244 295.696C264.777 295.752 258.546 293.266 253.894 288.772L49.333 84.2119V222H0V0H222Z" fill="white"/>
</svg>
