<svg width="310" height="168" viewBox="0 0 310 168" fill="none" xmlns="http://www.w3.org/2000/svg">
<path d="M14.0909 140H295.909V168H14.0909V140ZM30.2955 83.3L42.2727 62.58L54.25 83.3L72.5682 72.8L60.5909 52.08H84.5455V31.08H60.5909L72.5682 10.5L54.25 0L42.2727 20.58L30.2955 0L11.9773 10.5L23.9545 31.08H0V52.08H23.9545L11.9773 72.8L30.2955 83.3ZM124.705 72.8L143.023 83.3L155 62.58L166.977 83.3L185.295 72.8L173.318 52.08H197.273V31.08H173.318L185.295 10.5L166.977 0L155 20.58L143.023 0L124.705 10.5L136.682 31.08H112.727V52.08H136.682L124.705 72.8ZM310 31.08H286.045L298.023 10.5L279.705 0L267.727 20.58L255.75 0L237.432 10.5L249.409 31.08H225.455V52.08H249.409L237.432 72.8L255.75 83.3L267.727 62.58L279.705 83.3L298.023 72.8L286.045 52.08H310V31.08Z" fill="white"/>
</svg>
