<?xml version="1.0" encoding="UTF-8"?>
<svg id="Capa_1" xmlns="http://www.w3.org/2000/svg" version="1.1" viewBox="0 0 310 168">
  <!-- Generator: Adobe Illustrator 29.2.1, SVG Export Plug-In . SVG Version: 2.1.0 Build 116)  -->
  <defs>
    <style>
      .st0 {
        fill: #4a12a9;
      }
    </style>
  </defs>
  <path class="st0" d="M14.1,140h281.8v28H14.1v-28ZM30.3,83.3l12-20.7,12,20.7,18.3-10.5-12-20.7h24v-21h-24l12-20.6L54.2,0l-12,20.6L30.3,0,12,10.5l12,20.6H0v21h24l-12,20.7,18.3,10.5ZM124.7,72.8l18.3,10.5,12-20.7,12,20.7,18.3-10.5-12-20.7h24v-21h-24l12-20.6L167,0l-12,20.6L143,0l-18.3,10.5,12,20.6h-24v21h24l-12,20.7ZM310,31.1h-24l12-20.6-18.3-10.5-12,20.6L255.8,0l-18.3,10.5,12,20.6h-24v21h24l-12,20.7,18.3,10.5,12-20.7,12,20.7,18.3-10.5-12-20.7h24v-21Z"/>
</svg>