<svg width="187" height="144" viewBox="0 0 187 144" fill="none" xmlns="http://www.w3.org/2000/svg">
<path d="M87.1636 81.2896C93.7686 81.2896 100.103 83.9248 104.773 88.6155C109.444 93.3062 112.068 99.6681 112.068 106.302C112.068 118.37 104.696 127.937 94.4978 134.19C84.2997 140.418 70.6648 143.82 56.0338 143.82C41.4027 143.82 27.7678 140.418 17.5697 134.19C7.3591 127.937 0 118.37 0 106.302C0 99.6681 2.6238 93.3062 7.29418 88.6155C11.9646 83.9248 18.299 81.2896 24.9039 81.2896H87.1636ZM170.006 81.3896C174.606 81.8633 178.867 84.0334 181.965 87.4801C185.063 90.9268 186.779 95.4051 186.779 100.049C186.779 109.691 180.927 117.67 173.057 122.935C165.15 128.237 154.566 131.314 143.197 131.314C134.481 131.314 126.263 129.488 119.327 126.274C122.54 120.484 124.507 113.818 124.507 106.302C124.507 96.8096 120.971 88.1679 115.181 81.5522C116.193 81.3854 117.231 81.2979 118.294 81.2896H168.101L170.006 81.3896ZM56.0338 0C65.1155 0 73.8253 3.62341 80.2471 10.0731C86.6689 16.5228 90.2766 25.2705 90.2766 34.3917C90.2766 43.513 86.6689 52.2607 80.2471 58.7104C73.8253 65.1601 65.1155 68.7835 56.0338 68.7835C46.952 68.7835 38.2422 65.1601 31.8204 58.7104C25.3986 52.2607 21.7909 43.513 21.7909 34.3917C21.7909 25.2705 25.3986 16.5228 31.8204 10.0731C38.2422 3.62341 46.952 0 56.0338 0ZM143.222 12.4686C146.954 12.3896 150.663 13.0595 154.134 14.4391C157.604 15.8186 160.765 17.8801 163.432 20.5026C166.098 23.125 168.217 26.2558 169.664 29.7113C171.11 33.1668 171.855 36.8776 171.855 40.626C171.855 44.3745 171.11 48.0852 169.664 51.5407C168.217 54.9963 166.098 58.127 163.432 60.7495C160.765 63.372 157.604 65.4334 154.134 66.813C150.663 68.1925 146.954 68.8625 143.222 68.7835C135.889 68.6283 128.908 65.5935 123.777 60.3298C118.645 55.0662 115.771 47.9927 115.771 40.626C115.771 33.2593 118.645 26.1858 123.777 20.9222C128.908 15.6586 135.889 12.6238 143.222 12.4686Z" fill="white"/>
</svg>
