<?xml version="1.0" encoding="UTF-8"?>
<svg id="Capa_1" xmlns="http://www.w3.org/2000/svg" version="1.1" viewBox="0 0 187 144">
  <!-- Generator: Adobe Illustrator 29.2.1, SVG Export Plug-In . SVG Version: 2.1.0 Build 116)  -->
  <defs>
    <style>
      .st0 {
        fill: #4a12a9;
      }
    </style>
  </defs>
  <path class="st0" d="M87.2,81.3c6.6,0,12.9,2.6,17.6,7.3,4.7,4.7,7.3,11.1,7.3,17.7,0,12.1-7.4,21.6-17.6,27.9-10.2,6.2-23.8,9.6-38.5,9.6s-28.3-3.4-38.5-9.6C7.4,127.9,0,118.4,0,106.3s2.6-13,7.3-17.7c4.7-4.7,11-7.3,17.6-7.3h62.3ZM170,81.4c4.6.5,8.9,2.6,12,6.1,3.1,3.4,4.8,7.9,4.8,12.6,0,9.6-5.9,17.6-13.7,22.9-7.9,5.3-18.5,8.4-29.9,8.4s-16.9-1.8-23.9-5c3.2-5.8,5.2-12.5,5.2-20s-3.5-18.1-9.3-24.7c1-.2,2.1-.3,3.1-.3h51.7ZM56,0c9.1,0,17.8,3.6,24.2,10.1,6.4,6.4,10,15.2,10,24.3s-3.6,17.9-10,24.3c-6.4,6.4-15.1,10.1-24.2,10.1s-17.8-3.6-24.2-10.1c-6.4-6.4-10-15.2-10-24.3s3.6-17.9,10-24.3C38.2,3.6,47,0,56,0ZM143.2,12.5c3.7,0,7.4.6,10.9,2,3.5,1.4,6.6,3.4,9.3,6.1,2.7,2.6,4.8,5.8,6.2,9.2,1.4,3.5,2.2,7.2,2.2,10.9s-.7,7.5-2.2,10.9c-1.4,3.5-3.6,6.6-6.2,9.2-2.7,2.6-5.8,4.7-9.3,6.1-3.5,1.4-7.2,2-10.9,2-7.3-.2-14.3-3.2-19.4-8.5-5.1-5.3-8-12.3-8-19.7s2.9-14.4,8-19.7c5.1-5.3,12.1-8.3,19.4-8.5Z"/>
</svg>