<svg width="266" height="142" viewBox="0 0 266 142" fill="none" xmlns="http://www.w3.org/2000/svg">
<path d="M150.371 5.09525C153.447 2.17148 157.542 0.555096 161.79 0.587179C166.038 0.619262 170.107 2.2973 173.139 5.26721C176.171 8.23712 177.929 12.2666 178.041 16.5054C178.153 20.7442 176.611 24.8608 173.741 27.9865L86.5942 136.774C85.0957 138.385 83.2871 139.678 81.2766 140.576C79.266 141.473 77.0948 141.956 74.8928 141.997C72.6908 142.038 70.5031 141.635 68.4607 140.812C66.4182 139.99 64.5629 138.765 63.0057 137.21L5.21369 79.5243C3.60427 78.0274 2.31341 76.2223 1.41809 74.2166C0.522777 72.2109 0.0413565 70.0458 0.00254934 67.8503C-0.0362579 65.6549 0.368344 63.4741 1.19222 61.4382C2.01609 59.4022 3.24236 57.5527 4.79787 56.0001C6.35338 54.4474 8.20625 53.2234 10.246 52.4011C12.2857 51.5787 14.4704 51.1748 16.6699 51.2136C18.8694 51.2523 21.0385 51.7328 23.0479 52.6265C25.0573 53.5202 26.8658 54.8087 28.3654 56.4151L74.101 102.045L149.934 5.57488L150.371 5.09525ZM130.277 117.153L150.371 137.21C151.928 138.761 153.782 139.984 155.822 140.804C157.862 141.625 160.047 142.027 162.247 141.986C164.446 141.945 166.615 141.463 168.623 140.567C170.632 139.672 172.439 138.382 173.937 136.774L261.128 27.9865C262.694 26.443 263.933 24.6002 264.769 22.5683C265.606 20.5364 266.025 18.357 265.999 16.1602C265.973 13.9634 265.504 11.7943 264.62 9.78246C263.736 7.77058 262.455 5.95719 260.853 4.45058C259.251 2.94396 257.361 1.77502 255.297 1.01355C253.232 0.252093 251.035 -0.0862753 248.837 0.0186647C246.638 0.123605 244.483 0.669705 242.501 1.62434C240.519 2.57897 238.749 3.92256 237.299 5.57488L161.444 102.045L150.851 91.4496L130.277 117.153Z" fill="#4A12A9"/>
</svg>
