<svg width="298" height="298" viewBox="0 0 298 298" fill="none" xmlns="http://www.w3.org/2000/svg">
<mask id="mask0_115_902" style="mask-type:luminance" maskUnits="userSpaceOnUse" x="0" y="0" width="298" height="298">
<path d="M149 283.696C223.392 283.696 283.696 223.392 283.696 149C283.696 74.6071 223.392 14.3037 149 14.3037C74.6071 14.3037 14.3037 74.6071 14.3037 149C14.3037 223.392 74.6071 283.696 149 283.696Z" fill="white"/>
<path d="M270.909 149C270.909 81.6694 216.331 27.0909 149 27.0909C81.6694 27.0909 27.0909 81.6694 27.0909 149C27.0909 216.331 81.6694 270.909 149 270.909C216.331 270.909 270.909 216.331 270.909 149ZM298 149C298 231.293 231.293 298 149 298C66.7075 298 0 231.293 0 149C0 66.7075 66.7075 0 149 0C231.293 0 298 66.7075 298 149Z" fill="white"/>
<path d="M135.888 68.2658C135.888 60.8465 141.875 54.832 149.261 54.832C156.647 54.832 162.635 60.8465 162.635 68.2658V143.372L215.411 196.398C220.633 201.645 220.634 210.148 215.411 215.394C210.188 220.638 201.721 220.64 196.5 215.394L139.806 158.432C137.298 155.913 135.888 152.496 135.888 148.934V68.2658Z" fill="black"/>
</mask>
<g mask="url(#mask0_115_902)">
<path d="M-13.1123 -13.1123H311.112V311.112H-13.1123V-13.1123Z" fill="white"/>
</g>
</svg>
