<svg width="482" height="394" viewBox="0 0 482 394" fill="none" xmlns="http://www.w3.org/2000/svg">
<path fill-rule="evenodd" clip-rule="evenodd" d="M220.723 3.17538C232.229 -0.517144 244.525 -0.999172 256.285 1.78126L261.264 3.17538L405.854 49.5576C410.058 50.9517 413.842 53.5629 416.609 57.2142L418.158 59.5377L479.012 164.584C480.551 167.237 481.522 170.182 481.863 173.23C482.204 176.279 481.907 179.365 480.991 182.293C480.076 185.221 478.561 187.926 476.544 190.237C474.528 192.549 472.052 194.415 469.275 195.719L466.62 196.759L421.233 211.32V307.138C421.23 315.898 418.627 324.461 413.754 331.741C408.881 339.02 401.958 344.69 393.86 348.032L390.496 349.272L261.264 390.697C249.758 394.39 237.462 394.872 225.702 392.091L220.723 390.719L91.4905 349.272C83.1471 346.592 75.7869 341.497 70.3425 334.63C64.8982 327.764 61.6147 319.435 60.9083 310.701L60.7534 307.116V211.32L15.367 196.759C12.4482 195.822 9.75583 194.29 7.4606 192.258C5.16538 190.226 3.31735 187.739 2.03368 184.955C0.750015 182.172 0.0587049 179.152 0.00357878 176.087C-0.0515473 173.022 0.530715 169.979 1.71345 167.151L2.9748 164.584L63.8293 59.5377C66.1103 55.602 69.5488 52.4649 73.6767 50.5534L76.1109 49.5576L220.723 3.17538ZM263.122 203.686V343.629L376.976 307.116V225.527L308.597 247.456C304.212 248.863 299.497 248.866 295.11 247.466C290.723 246.066 286.882 243.332 284.123 239.645L282.706 237.476L263.122 203.686ZM218.865 203.686L199.28 237.476C196.75 241.843 192.803 245.213 188.094 247.029C183.384 248.844 178.196 248.995 173.39 247.456L105.011 225.527V307.116L218.865 343.651V203.686ZM93.1723 97.1348L55.0441 163.013L169.915 199.879L208.088 134.002L93.1723 97.1348ZM388.815 97.1348L273.899 134.002L312.049 199.879L426.943 163.013L388.815 97.1348ZM247.743 45.3088C244.24 44.19 240.513 43.9619 236.9 44.645L234.244 45.3088L155.355 70.6243L240.993 98.0863L326.632 70.6243L247.743 45.3088Z" fill="url(#paint0_linear_79_914)"/>
<defs>
<linearGradient id="paint0_linear_79_914" x1="241" y1="0" x2="241" y2="393.872" gradientUnits="userSpaceOnUse">
<stop stop-color="#4A12A9"/>
<stop offset="1" stop-color="#A14371"/>
</linearGradient>
</defs>
</svg>
