<svg width="152" height="202" viewBox="0 0 152 202" fill="none" xmlns="http://www.w3.org/2000/svg">
<path d="M76.3966 115.331C99.5434 115.332 129.81 126.824 149.316 156.855L149.788 157.636C152.098 161.659 153.194 167.463 150.076 172.997L150.07 173.003C147.446 177.648 142.592 183.82 137.204 188.981C134.466 191.603 131.352 194.196 128.069 196.261C124.909 198.248 120.888 200.194 116.436 200.669L116.423 200.675C105.252 201.849 77.1183 202 76.4097 202C75.7053 202 46.7427 201.848 35.5764 200.675L35.5436 200.669C31.0996 200.187 27.084 198.236 23.9238 196.248C20.6415 194.183 17.529 191.597 14.7893 188.974C9.40112 183.815 4.53271 177.636 1.91044 172.964L1.917 172.957C-1.40298 167.066 0.0861079 160.883 2.63176 156.914L2.66455 156.868C22.2345 126.74 53.3744 115.298 76.3966 115.331ZM76.3769 135.48C59.8418 135.453 36.5125 143.597 21.0779 165.585C22.8833 168.147 25.5975 171.433 28.7173 174.42C30.8052 176.419 32.8439 178.061 34.6453 179.195C35.5341 179.754 36.2744 180.128 36.8486 180.362C37.129 180.477 37.3455 180.551 37.4978 180.592C37.5861 180.616 37.6483 180.625 37.6814 180.631L42.029 180.979C47.0598 181.287 53.902 181.499 60.3571 181.635C64.576 181.724 68.5025 181.773 71.4261 181.805C72.8853 181.821 74.0928 181.838 74.9605 181.845C75.3946 181.848 75.7458 181.85 75.9966 181.851H76.8228C77.0687 181.85 77.41 181.848 77.8327 181.845C78.6792 181.838 79.855 181.821 81.2754 181.805C84.1221 181.773 87.9436 181.724 92.0558 181.635C98.3486 181.499 105.038 181.288 110.004 180.979L114.318 180.631C114.383 180.621 114.653 180.571 115.151 180.369C115.722 180.137 116.46 179.76 117.348 179.201C119.146 178.07 121.181 176.427 123.269 174.427C126.381 171.446 129.095 168.164 130.909 165.598C115.489 143.546 92.878 135.481 76.3966 135.48H76.3769ZM99.3543 43.0983C99.3543 37.0125 96.9352 31.1751 92.6329 26.8717C88.3303 22.5682 82.4944 20.1488 76.4097 20.1488C70.3256 20.1492 64.4888 22.5686 60.1866 26.8717C55.8852 31.175 53.4717 37.0132 53.4717 43.0983C53.4723 49.1835 55.8846 55.022 60.1866 59.325C64.4887 63.6278 70.3257 66.0408 76.4097 66.0412C82.4936 66.0412 88.3305 63.6273 92.6329 59.325C96.9349 55.022 99.3537 49.1835 99.3543 43.0983ZM119.499 43.0983C119.498 54.5273 114.956 65.4892 106.876 73.5708C98.7955 81.6518 87.8362 86.1901 76.4097 86.1901C64.9831 86.1897 54.0238 81.6523 45.9438 73.5708C37.8639 65.4892 33.3278 54.5273 33.3272 43.0983C33.3272 31.6694 37.8646 20.7077 45.9438 12.6258C54.0238 4.54408 64.9829 0.000391826 76.4097 0C87.8371 0 98.7953 4.54373 106.876 12.6258C114.956 20.7079 119.499 31.6687 119.499 43.0983Z" fill="white"/>
</svg>
