<svg width="251" height="319" viewBox="0 0 251 319" fill="none" xmlns="http://www.w3.org/2000/svg">
<path d="M230.875 109.709C230.875 85.9545 230.853 69.1515 229.153 56.4237C227.491 43.9873 224.389 36.9669 219.326 31.8776L219.32 31.871C214.263 26.7765 207.287 23.6605 194.93 21.988C182.284 20.2766 165.592 20.254 141.992 20.254H109.008C85.4053 20.254 68.7097 20.2762 56.0631 21.988C43.7064 23.6607 36.7307 26.7759 31.6739 31.871L31.6673 31.8776C26.6048 36.9669 23.5095 43.9875 21.8475 56.4237C20.1467 69.1515 20.1246 85.9545 20.1246 109.709V209.291C20.1246 233.045 20.1467 249.848 21.8475 262.576C23.4056 274.235 26.2261 281.13 30.7437 286.14L31.6673 287.122L31.6739 287.129C36.7307 292.224 43.7064 295.339 56.0631 297.012C68.7097 298.724 85.4053 298.746 109.008 298.746H141.992C165.592 298.746 182.284 298.723 194.93 297.012C207.287 295.34 214.263 292.224 219.32 287.129L219.326 287.122C224.389 282.033 227.491 275.013 229.153 262.576C230.853 249.848 230.875 233.045 230.875 209.291V109.709ZM251 209.291C251 232.472 251.017 250.881 249.094 265.273C247.132 279.951 242.982 291.955 233.555 301.436C224.133 310.929 212.204 315.113 197.616 317.088C183.317 319.023 165.025 319 141.992 319H109.008C85.975 319 67.6832 319.023 53.3838 317.088C38.7959 315.114 26.8606 310.935 17.4387 301.443V301.436C8.01341 291.955 3.86098 279.95 1.89979 265.273C-0.0231385 250.881 1.28004e-05 232.472 1.28004e-05 209.291V109.709C1.28004e-05 86.5279 -0.0231391 68.1185 1.89979 53.7271C3.86166 39.0454 8.01302 27.0333 17.4452 17.5508C26.8661 8.06262 38.7993 3.88603 53.3838 1.91201C67.6832 -0.0232875 85.975 1.31532e-05 109.008 1.31572e-05H141.992C165.025 1.18045e-05 183.317 -0.0234002 197.616 1.91201C212.204 3.88659 224.14 8.06419 233.561 17.5574H233.555C242.984 27.0392 247.132 39.0476 249.094 53.7271C251.017 68.1186 251 86.5276 251 109.709V209.291Z" fill="white"/>
</svg>
