<svg width="351" height="319" viewBox="0 0 351 319" fill="none" xmlns="http://www.w3.org/2000/svg">
<path d="M280.875 109.709C280.875 85.9545 280.853 69.1515 279.153 56.4237C277.491 43.9873 274.389 36.9669 269.326 31.8776L269.32 31.871C264.263 26.7765 257.287 23.6605 244.93 21.988C232.284 20.2766 215.592 20.254 191.992 20.254H159.008C135.405 20.254 118.71 20.2762 106.063 21.988C93.7064 23.6607 86.7307 26.7759 81.6739 31.871L81.6673 31.8776C76.6048 36.9669 73.5095 43.9875 71.8475 56.4237C70.1467 69.1515 70.1246 85.9545 70.1246 109.709V209.291C70.1246 233.045 70.1467 249.848 71.8475 262.576C73.4056 274.235 76.2261 281.13 80.7437 286.14L81.6673 287.122L81.6739 287.129C86.7307 292.224 93.7064 295.339 106.063 297.012C118.71 298.724 135.405 298.746 159.008 298.746H191.992C215.592 298.746 232.284 298.723 244.93 297.012C257.287 295.34 264.263 292.224 269.32 287.129L269.326 287.122C274.389 282.033 277.491 275.013 279.153 262.576C280.853 249.848 280.875 233.045 280.875 209.291V109.709ZM301 209.291C301 232.472 301.017 250.881 299.094 265.273C297.132 279.951 292.982 291.955 283.555 301.436C274.133 310.929 262.204 315.113 247.616 317.088C233.317 319.023 215.025 319 191.992 319H159.008C135.975 319 117.683 319.023 103.384 317.088C88.7959 315.114 76.8606 310.935 67.4387 301.443V301.436C58.0134 291.955 53.861 279.95 51.8998 265.273C49.9769 250.881 50 232.472 50 209.291V109.709C50 86.5279 49.9769 68.1185 51.8998 53.7271C53.8617 39.0454 58.013 27.0333 67.4452 17.5508C76.8661 8.06262 88.7993 3.88603 103.384 1.91201C117.683 -0.0232875 135.975 1.31532e-05 159.008 1.31572e-05H191.992C215.025 1.18045e-05 233.317 -0.0234002 247.616 1.91201C262.204 3.88659 274.14 8.06419 283.561 17.5574H283.555C292.984 27.0392 297.132 39.0476 299.094 53.7271C301.017 68.1186 301 86.5276 301 109.709V209.291Z" fill="url(#paint0_linear_74_900)"/>
<path d="M0 241.939V77.0605C0 71.5043 4.51861 67 10.0926 67C15.6666 67 20.1852 71.5043 20.1852 77.0605V241.939C20.1852 247.496 15.6666 252 10.0926 252C4.51861 252 0 247.496 0 241.939ZM330.815 241.939V77.0605C330.815 71.5043 335.333 67 340.907 67C346.48 67.0012 351 71.505 351 77.0605V241.939C351 247.495 346.48 251.999 340.907 252C335.333 252 330.815 247.496 330.815 241.939Z" fill="url(#paint1_linear_74_900)"/>
<path d="M175.397 174.331C198.543 174.332 228.81 185.824 248.316 215.855L248.788 216.636C251.098 220.659 252.194 226.463 249.076 231.997L249.07 232.003C246.446 236.648 241.592 242.82 236.204 247.981C233.466 250.603 230.352 253.196 227.069 255.261C223.909 257.248 219.888 259.194 215.436 259.669L215.423 259.675C204.252 260.849 176.118 261 175.41 261C174.705 261 145.743 260.848 134.576 259.675L134.544 259.669C130.1 259.187 126.084 257.236 122.924 255.248C119.641 253.183 116.529 250.597 113.789 247.974C108.401 242.815 103.533 236.636 100.91 231.964L100.917 231.957C97.597 226.066 99.0861 219.883 101.632 215.914L101.665 215.868C121.235 185.74 152.374 174.298 175.397 174.331ZM175.377 194.48C158.842 194.453 135.512 202.597 120.078 224.585C121.883 227.147 124.597 230.433 127.717 233.42C129.805 235.419 131.844 237.061 133.645 238.195C134.534 238.754 135.274 239.128 135.849 239.362C136.129 239.477 136.345 239.551 136.498 239.592C136.586 239.616 136.648 239.625 136.681 239.631L141.029 239.979C146.06 240.287 152.902 240.499 159.357 240.635C163.576 240.724 167.502 240.773 170.426 240.805C171.885 240.821 173.093 240.838 173.961 240.845C174.395 240.848 174.746 240.85 174.997 240.851H175.823C176.069 240.85 176.41 240.848 176.833 240.845C177.679 240.838 178.855 240.821 180.275 240.805C183.122 240.773 186.944 240.724 191.056 240.635C197.349 240.499 204.038 240.288 209.004 239.979L213.318 239.631C213.383 239.621 213.653 239.571 214.151 239.369C214.722 239.137 215.46 238.76 216.348 238.201C218.146 237.07 220.181 235.427 222.269 233.427C225.381 230.446 228.095 227.164 229.909 224.598C214.489 202.546 191.878 194.481 175.397 194.48H175.377ZM198.354 102.098C198.354 96.0125 195.935 90.1751 191.633 85.8717C187.33 81.5682 181.494 79.1488 175.41 79.1488C169.326 79.1492 163.489 81.5686 159.187 85.8717C154.885 90.175 152.472 96.0132 152.472 102.098C152.472 108.184 154.885 114.022 159.187 118.325C163.489 122.628 169.326 125.041 175.41 125.041C181.494 125.041 187.331 122.627 191.633 118.325C195.935 114.022 198.354 108.184 198.354 102.098ZM218.499 102.098C218.498 113.527 213.956 124.489 205.876 132.571C197.795 140.652 186.836 145.19 175.41 145.19C163.983 145.19 153.024 140.652 144.944 132.571C136.864 124.489 132.328 113.527 132.327 102.098C132.327 90.6694 136.865 79.7077 144.944 71.6258C153.024 63.5441 163.983 59.0004 175.41 59C186.837 59 197.795 63.5437 205.876 71.6258C213.956 79.7079 218.499 90.6687 218.499 102.098Z" fill="url(#paint2_linear_74_900)"/>
<defs>
<linearGradient id="paint0_linear_74_900" x1="273.826" y1="-3.5" x2="35.4571" y2="221.059" gradientUnits="userSpaceOnUse">
<stop stop-color="#4A12A9"/>
<stop offset="1" stop-color="#A14371"/>
</linearGradient>
<linearGradient id="paint1_linear_74_900" x1="313" y1="64.9702" x2="210.866" y2="296.98" gradientUnits="userSpaceOnUse">
<stop stop-color="#4A12A9"/>
<stop offset="1" stop-color="#A14371"/>
</linearGradient>
<linearGradient id="paint2_linear_74_900" x1="234.544" y1="56.7837" x2="84.1523" y2="192.276" gradientUnits="userSpaceOnUse">
<stop stop-color="#4A12A9"/>
<stop offset="1" stop-color="#A14371"/>
</linearGradient>
</defs>
</svg>
