<svg width="256" height="256" viewBox="0 0 256 256" fill="none" xmlns="http://www.w3.org/2000/svg">
<path d="M203.52 196.992C200.192 186.752 190.592 179.2 179.2 179.2H166.4V140.8C166.4 137.405 165.051 134.15 162.651 131.749C160.251 129.349 156.995 128 153.6 128H76.8V102.4H102.4C105.795 102.4 109.051 101.051 111.451 98.651C113.851 96.2505 115.2 92.9948 115.2 89.6V64H140.8C147.59 64 154.101 61.3029 158.902 56.5019C163.703 51.701 166.4 45.1895 166.4 38.4V33.152C181.715 39.3263 195.306 49.1197 206.009 61.6939C216.712 74.2681 224.209 89.2486 227.857 105.353C231.506 121.458 231.198 138.206 226.959 154.166C222.721 170.125 214.678 184.82 203.52 196.992ZM115.2 229.504C64.64 223.232 25.6 180.224 25.6 128C25.6 120.064 26.624 112.384 28.288 105.088L89.6 166.4V179.2C89.6 185.99 92.2971 192.501 97.0981 197.302C101.899 202.103 108.41 204.8 115.2 204.8M128 0C111.191 0 94.5462 3.31082 79.0165 9.74342C63.4868 16.176 49.3762 25.6044 37.4903 37.4903C13.4857 61.495 0 94.0523 0 128C0 161.948 13.4857 194.505 37.4903 218.51C49.3762 230.396 63.4868 239.824 79.0165 246.257C94.5462 252.689 111.191 256 128 256C161.948 256 194.505 242.514 218.51 218.51C242.514 194.505 256 161.948 256 128C256 111.191 252.689 94.5462 246.257 79.0165C239.824 63.4868 230.396 49.3762 218.51 37.4903C206.624 25.6044 192.513 16.176 176.983 9.74342C161.454 3.31082 144.809 0 128 0Z" fill="white"/>
</svg>
