<svg width="370" height="370" viewBox="0 0 370 370" fill="none" xmlns="http://www.w3.org/2000/svg">
<path d="M185 0C287.176 0 370 82.8244 370 185C370 287.175 287.176 370 185 370C152.306 370.056 120.187 361.404 91.9452 344.932L0.0742859 370L25.0863 278.092C8.60201 249.841 -0.0570101 217.708 0.00028247 185C0.00028247 82.8244 82.8247 0 185 0ZM121.952 98.0499L118.252 98.1979C115.86 98.3628 113.523 98.9911 111.37 100.048C109.364 101.186 107.533 102.606 105.931 104.266C103.711 106.356 102.453 108.169 101.103 109.927C94.26 118.824 90.5757 129.746 90.6317 140.97C90.6687 150.035 93.0367 158.859 96.7367 167.11C104.303 183.797 116.754 201.465 133.182 217.837C137.141 221.778 141.026 225.737 145.207 229.418C165.62 247.389 189.945 260.35 216.247 267.269L226.755 268.879C230.177 269.064 233.6 268.805 237.041 268.638C242.428 268.354 247.687 266.896 252.451 264.365C254.872 263.113 257.236 261.755 259.537 260.295C259.537 260.295 260.32 259.764 261.849 258.63C264.347 256.78 265.882 255.466 267.954 253.302C269.508 251.698 270.803 249.836 271.839 247.715C273.282 244.699 274.725 238.946 275.317 234.154C275.761 230.491 275.632 228.493 275.576 227.254C275.502 225.274 273.856 223.221 272.061 222.351L261.294 217.523C261.294 217.523 245.199 210.511 235.357 206.034C234.327 205.586 233.224 205.329 232.101 205.276C230.835 205.143 229.556 205.285 228.349 205.69C227.143 206.095 226.037 206.755 225.108 207.625C225.016 207.588 223.776 208.643 210.401 224.849C209.633 225.88 208.575 226.66 207.363 227.088C206.151 227.517 204.838 227.574 203.593 227.254C202.387 226.932 201.206 226.524 200.059 226.033C197.765 225.071 196.97 224.701 195.397 224.035C184.776 219.408 174.944 213.147 166.26 205.479C163.929 203.444 161.764 201.224 159.544 199.078C152.266 192.108 145.924 184.223 140.674 175.62L139.583 173.863C138.811 172.675 138.177 171.403 137.696 170.07C136.993 167.351 138.824 165.168 138.824 165.168C138.824 165.168 143.32 160.247 145.41 157.583C147.445 154.993 149.166 152.477 150.276 150.682C152.459 147.167 153.143 143.56 151.996 140.766C146.816 128.112 141.464 115.526 135.938 103.008C134.847 100.529 131.609 98.7529 128.668 98.4014C127.669 98.2781 126.67 98.1794 125.671 98.1054C123.187 97.963 120.696 97.9877 118.215 98.1794L121.952 98.0499Z" fill="white"/>
</svg>
