<svg width="168" height="168" viewBox="0 0 168 168" fill="none" xmlns="http://www.w3.org/2000/svg">
<path d="M4.69606 4.69606C7.70358 1.68919 11.7823 0 16.0351 0C20.2879 0 24.3666 1.68919 27.3741 4.69606L84.0817 61.4036L140.789 4.69606C143.811 1.76101 147.867 0.132963 152.08 0.163751C156.292 0.194539 160.324 1.88169 163.303 4.8606C166.282 7.8395 167.969 11.8709 168 16.0836C168.03 20.2963 166.402 24.352 163.467 27.3741L106.76 84.0817L163.467 140.789C166.402 143.811 168.03 147.867 168 152.08C167.969 156.292 166.282 160.324 163.303 163.303C160.324 166.282 156.292 167.969 152.08 168C147.867 168.03 143.811 166.402 140.789 163.467L84.0817 106.76L27.3741 163.467C24.352 166.402 20.2963 168.03 16.0836 168C11.8709 167.969 7.8395 166.282 4.8606 163.303C1.88169 160.324 0.194539 156.292 0.163751 152.08C0.132963 147.867 1.76101 143.811 4.69606 140.789L61.4036 84.0817L4.69606 27.3741C1.68919 24.3666 0 20.2879 0 16.0351C0 11.7823 1.68919 7.70358 4.69606 4.69606Z" fill="#898989"/>
</svg>
